<svg xmlns="http://www.w3.org/2000/svg" xmlns:xlink="http://www.w3.org/1999/xlink" width="22pt" height="22pt" viewBox="0 0 22 22"><g id="surface1"><path style="stroke:none;fill-rule:nonzero;fill:#000;fill-opacity:1" d="M7.925781 17.671875C7.773438 17.699219 7.707031 17.769531 7.726562 17.882812 7.746094 18 7.832031 18.039062 7.984375 18 8.136719 17.960938 8.203125 17.894531 8.183594 17.796875 8.164062 17.695312 8.078125 17.652344 7.925781 17.671875zM7.109375 17.785156C6.957031 17.785156 6.882812 17.835938 6.882812 17.941406 6.882812 18.066406 6.964844 18.117188 7.125 18.097656 7.277344 18.097656 7.355469 18.046875 7.355469 17.941406 7.355469 17.816406 7.273438 17.765625 7.109375 17.785156zM5.996094 17.742188C5.957031 17.847656 6.019531 17.917969 6.179688 17.957031 6.324219 18.011719 6.414062 17.984375 6.453125 17.871094 6.480469 17.765625 6.417969 17.6875 6.265625 17.640625 6.125 17.601562 6.035156 17.636719 5.996094 17.742188zM20.769531 1.207031C19.960938.402344 18.992188.0 17.855469.0H4.121094C2.984375.0 2.015625.402344 1.207031 1.207031.402344 2.015625.0 2.984375.0 4.121094V17.855469C0 18.992188.402344 19.960938 1.207031 20.769531 2.015625 21.574219 2.984375 21.976562 4.121094 21.976562H7.324219C7.535156 21.976562 7.691406 21.96875 7.796875 21.957031 7.902344 21.941406 8.007812 21.878906 8.113281 21.769531 8.21875 21.660156 8.269531 21.5 8.269531 21.289062L8.261719 20.316406 8.253906 18.84375 7.925781 18.902344C7.714844 18.9375 7.453125 18.957031 7.132812 18.949219 6.8125 18.945312 6.480469 18.914062 6.136719 18.851562 5.792969 18.789062 5.476562 18.644531 5.179688 18.421875 4.882812 18.195312 4.671875 17.902344 4.550781 17.542969L4.40625 17.210938C4.3125 16.992188 4.160156 16.75 3.957031 16.484375 3.75 16.214844 3.542969 16.035156 3.332031 15.9375L3.234375 15.867188C3.167969 15.820312 3.105469 15.761719 3.046875 15.695312 2.988281 15.628906 2.945312 15.5625 2.917969 15.496094 2.890625 15.429688 2.914062 15.375 2.988281 15.332031 3.066406 15.289062 3.203125 15.265625 3.40625 15.265625L3.691406 15.308594C3.882812 15.347656 4.117188 15.460938 4.398438 15.652344 4.679688 15.84375 4.910156 16.089844 5.09375 16.394531 5.3125 16.789062 5.578125 17.085938 5.886719 17.289062 6.199219 17.496094 6.511719 17.597656 6.824219 17.597656 7.140625 17.597656 7.410156 17.574219 7.640625 17.527344 7.867188 17.480469 8.082031 17.40625 8.285156 17.3125 8.371094 16.671875 8.601562 16.179688 8.984375 15.839844 8.441406 15.78125 7.953125 15.695312 7.519531 15.582031 7.085938 15.464844 6.636719 15.28125 6.171875 15.023438 5.710938 14.765625 5.328125 14.445312 5.023438 14.0625 4.714844 13.683594 4.464844 13.179688 4.269531 12.5625 4.074219 11.941406 3.976562 11.226562 3.976562 10.414062 3.976562 9.261719 4.355469 8.277344 5.109375 7.46875 4.753906 6.601562 4.789062 5.628906 5.207031 4.550781 5.484375 4.464844 5.894531 4.527344 6.4375 4.742188 6.980469 4.957031 7.378906 5.140625 7.632812 5.292969 7.886719 5.445312 8.089844 5.574219 8.242188 5.679688 9.128906 5.429688 10.042969 5.308594 10.988281 5.308594 11.933594 5.308594 12.847656 5.429688 13.734375 5.679688L14.277344 5.335938C14.652344 5.105469 15.089844 4.898438 15.59375 4.707031 16.101562 4.515625 16.488281 4.464844 16.753906 4.550781 17.183594 5.628906 17.222656 6.601562 16.867188 7.46875 17.621094 8.277344 18 9.261719 18 10.414062 18 11.226562 17.902344 11.945312 17.707031 12.570312 17.511719 13.191406 17.257812 13.695312 16.949219 14.070312 16.636719 14.449219 16.25 14.765625 15.789062 15.023438 15.328125 15.28125 14.878906 15.464844 14.445312 15.582031 14.011719 15.695312 13.519531 15.78125 12.976562 15.839844 13.472656 16.265625 13.722656 16.945312 13.722656 17.871094V21.289062C13.722656 21.453125 13.746094 21.582031 13.792969 21.683594 13.839844 21.785156 13.917969 21.851562 14.023438 21.890625 14.128906 21.929688 14.21875 21.953125 14.300781 21.960938 14.382812 21.972656 14.5 21.976562 14.652344 21.976562h3.203125C18.992188 21.976562 19.960938 21.574219 20.769531 20.765625 21.574219 19.960938 21.976562 18.992188 21.976562 17.855469V4.121094C21.976562 2.984375 21.574219 2.015625 20.769531 1.207031zM4.347656 15.996094C4.28125 16.042969 4.292969 16.121094 4.378906 16.226562 4.472656 16.320312 4.550781 16.335938 4.605469 16.269531 4.675781 16.21875 4.664062 16.144531 4.578125 16.039062 4.484375 15.953125 4.40625 15.9375 4.347656 15.996094zM3.878906 15.636719C3.847656 15.707031 3.882812 15.761719 3.976562 15.808594 4.054688 15.859375 4.117188 15.847656 4.164062 15.78125 4.191406 15.714844 4.160156 15.65625 4.0625 15.609375 3.96875 15.582031 3.90625 15.589844 3.878906 15.636719zM4.792969 16.554688C4.707031 16.601562 4.707031 16.6875 4.792969 16.8125 4.878906 16.9375 4.960938 16.96875 5.035156 16.910156 5.121094 16.84375 5.121094 16.753906 5.035156 16.640625 4.960938 16.515625 4.878906 16.488281 4.792969 16.554688zM5.292969 17.199219C5.207031 17.273438 5.226562 17.363281 5.351562 17.46875 5.464844 17.585938 5.5625 17.597656 5.636719 17.511719 5.714844 17.4375 5.695312 17.34375 5.582031 17.242188 5.464844 17.125 5.371094 17.113281 5.292969 17.199219zm0 0"/></g></svg>