<svg xmlns="http://www.w3.org/2000/svg" xmlns:xlink="http://www.w3.org/1999/xlink" width="22pt" height="22pt" viewBox="0 0 22 22"><g id="surface1"><path style="stroke:none;fill-rule:nonzero;fill:#fff;fill-opacity:1" d="M11 7.375C13 7.375 14.625 9 14.625 11c0 2-1.625 3.625-3.625 3.625C9 14.625 7.375 13 7.375 11 7.375 9 9 7.375 11 7.375zm0 0"/><path style="stroke:none;fill-rule:evenodd;fill:#2962ff;fill-opacity:1" d="M1.511719 7.351562C-.503906 9.367188-.503906 12.632812 1.511719 14.648438l5.839843 5.839843c2.015626 2.015625 5.281249999999999 2.015625 7.296876.0l5.839843-5.839843c2.015625-2.015626000000001 2.015625-5.28125.0-7.296876L14.648438 1.511719C12.632812-.503906 9.367188-.503906 7.351562 1.511719zM13.554688 13.554688C14.964844 12.144531 14.964844 9.855469 13.554688 8.445312 12.144531 7.035156 9.855469 7.035156 8.445312 8.445312 7.035156 9.855469 7.035156 12.144531 8.445312 13.554688 9.855469 14.964844 12.144531 14.964844 13.554688 13.554688zm0 0"/></g></svg>