<svg xmlns="http://www.w3.org/2000/svg" xmlns:xlink="http://www.w3.org/1999/xlink" width="22pt" height="22pt" viewBox="0 0 22 22"><g id="surface1"><path style="stroke:none;fill-rule:nonzero;fill:#ffc107;fill-opacity:1" d="M4.890625 17.394531h8.6875V19.25h-8.6875zM19.445312 8.558594 17.617188 8.875 16.132812.316406 17.957031.0zM5.136719 14.03125 13.785156 14.828125 13.617188 16.675781 4.96875 15.878906zm9.21875-1.625L13.875 14.199219 5.488281 11.945312 5.96875 10.152344zM7.96875 5.875 15.453125 10.285156 14.511719 11.882812 7.027344 7.472656zm4.421875-4.066406L17.285156 8.988281 15.753906 10.03125 10.859375 2.855469zm0 0"/><path style="stroke:none;fill-rule:nonzero;fill:#b0bec5;fill-opacity:1" d="M16.304688 22H2.554688V13.75h1.375v6.875h11V13.75H16.304688zm0 0"/></g></svg>